ply
format ascii 1.0
comment PCL generated
element vertex 549
property float x
property float y
property float z
property float nx
property float ny
property float nz
property float curvature
element face 0
element camera 1
property float view_px
property float view_py
property float view_pz
property float x_axisx
property float x_axisy
property float x_axisz
property float y_axisx
property float y_axisy
property float y_axisz
property float z_axisx
property float z_axisy
property float z_axisz
property float focal
property float scalex
property float scaley
property float centerx
property float centery
property int viewportx
property int viewporty
property float k1
property float k2
end_header
0.065078005 -0.45048907 -0.082592547 0 0 0 0
0.071871802 -0.44242516 -0.082696252 0 0 0 0
0.065026648 -0.43475211 -0.083944827 0 0 0 0
0.035460111 -0.42459252 -0.082862973 0 0 0 0
0.044947255 -0.4249143 -0.083542317 0 0 0 0
0.084380016 -0.42433345 -0.082751177 0 0 0 0
0.055000644 -0.41503716 -0.083144709 0 0 0 0
-7.9497695e-06 -0.40024674 -0.080197416 0 0 0 0
0.0067333733 -0.40277195 -0.082169466 0 0 0 0
0.075015403 -0.40516457 -0.082728252 0 0 0 0
0.084957555 -0.40497604 -0.082701504 0 0 0 0
-0.0040030731 -0.39348471 -0.081930913 0 0 0 0
0.0047324887 -0.39506403 -0.082301728 0 0 0 0
0.024850892 -0.39499459 -0.082360096 0 0 0 0
0.034925643 -0.39499307 -0.082307853 0 0 0 0
0.07495895 -0.39512557 -0.082279503 0 0 0 0
-0.021454051 -0.38113025 -0.081281938 0 0 0 0
-0.0051608323 -0.38498616 -0.082018666 0 0 0 0
0.015171859 -0.38513106 -0.081976078 0 0 0 0
0.064898245 -0.3850311 -0.081909604 0 0 0 0
-0.015103734 -0.37504703 -0.081575722 0 0 0 0
0.015063141 -0.37497562 -0.08157099 0 0 0 0
0.054933716 -0.37499672 -0.081530631 0 0 0 0
-0.012939975 -0.36630443 -0.081194557 0 0 0 0
-0.004971032 -0.36493784 -0.081264026 0 0 0 0
0.014895483 -0.36499533 -0.081227332 0 0 0 0
0.043500826 -0.35757601 -0.081031621 0 0 0 0
0.021717874 -0.33862081 -0.080638625 0 0 0 0
0.064947315 -0.45059705 -0.074343607 0 0 0 0
0.038783103 -0.43085814 -0.074395329 0 0 0 0
0.051032063 -0.43903577 -0.075369701 0 0 0 0
0.077049278 -0.43620309 -0.075072624 0 0 0 0
0.081375606 -0.4316164 -0.074796833 0 0 0 0
0.090563089 -0.42071038 -0.0749152 0 0 0 0
0.0057396018 -0.4032999 -0.07506822 0 0 0 0
0.01228412 -0.40822357 -0.075106114 0 0 0 0
-0.011120605 -0.3906779 -0.075177103 0 0 0 0
-0.0050508785 -0.3945137 -0.075056858 0 0 0 0
-0.021669107 -0.38131803 -0.07469628 0 0 0 0
0.019849133 -0.3876898 -0.079944625 0 0 0 0
0.047585435 -0.3854084 -0.07988634 0 0 0 0
0.07620731 -0.38296351 -0.07504344 0 0 0 0
-0.018146813 -0.37223434 -0.075294361 0 0 0 0
0.0047268113 -0.37331021 -0.079834625 0 0 0 0
0.025126424 -0.37372845 -0.079857558 0 0 0 0
0.071518466 -0.37866938 -0.075054765 0 0 0 0
-0.0074880454 -0.36225101 -0.076864459 0 0 0 0
0.014783143 -0.36444005 -0.079698011 0 0 0 0
0.05480919 -0.36555547 -0.075126767 0 0 0 0
0.060760558 -0.36955053 -0.075552501 0 0 0 0
-0.0009613572 -0.34891984 -0.075823575 0 0 0 0
0.0040808632 -0.34450513 -0.075671606 0 0 0 0
0.014695938 -0.33484602 -0.075594857 0 0 0 0
0.064694285 -0.45073 -0.064686857 0 0 0 0
0.023191629 -0.41747579 -0.06524349 0 0 0 0
0.094657615 -0.41497135 -0.065006554 0 0 0 0
0.012242118 -0.40848109 -0.06520354 0 0 0 0
0.098454252 -0.40403298 -0.064782307 0 0 0 0
0.10155077 -0.40521696 -0.064947978 0 0 0 0
-0.010983794 -0.39084664 -0.064725585 0 0 0 0
0.087141164 -0.39223108 -0.064772978 0 0 0 0
-0.021897819 -0.3815181 -0.064828709 0 0 0 0
-0.015496626 -0.38635778 -0.064965248 0 0 0 0
0.065153919 -0.37435427 -0.064973332 0 0 0 0
-0.013472996 -0.36563203 -0.065092981 0 0 0 0
-0.010453697 -0.35941923 -0.067892455 0 0 0 0
-0.00077796652 -0.34879556 -0.064983718 0 0 0 0
0.0037959844 -0.3445324 -0.065031804 0 0 0 0
0.0085164588 -0.33800966 -0.065155081 0 0 0 0
0.077314883 -0.43659478 -0.055134621 0 0 0 0
0.086256303 -0.42559838 -0.054987662 0 0 0 0
0.10044041 -0.4102557 -0.053220343 0 0 0 0
0.0053655636 -0.40377688 -0.055002458 0 0 0 0
-0.0050732731 -0.39521807 -0.055103488 0 0 0 0
0.093328543 -0.39724413 -0.054998111 0 0 0 0
-0.022381451 -0.37699121 -0.055013418 0 0 0 0
0.071322344 -0.37904438 -0.055206008 0 0 0 0
0.0039164731 -0.34475213 -0.055128638 0 0 0 0
0.0086249616 -0.33833808 -0.054993354 0 0 0 0
0.064633369 -0.45108044 -0.044839609 0 0 0 0
0.05517301 -0.44433129 -0.044905078 0 0 0 0
0.072684281 -0.44336185 -0.045022383 0 0 0 0
0.044680756 -0.43572405 -0.045098171 0 0 0 0
0.050633613 -0.43950674 -0.045436312 0 0 0 0
0.033825617 -0.42686954 -0.045131166 0 0 0 0
-0.00081377488 -0.40039676 -0.044727914 0 0 0 0
0.092999481 -0.39743835 -0.04484133 0 0 0 0
-0.022383219 -0.38190806 -0.044899974 0 0 0 0
0.069279589 -0.38032091 -0.042769257 0 0 0 0
-0.013204844 -0.36606592 -0.045155119 0 0 0 0
-0.0086939735 -0.36139098 -0.044818804 0 0 0 0
0.054497872 -0.36642447 -0.045016762 0 0 0 0
0.060278274 -0.36983475 -0.048870504 0 0 0 0
0.043274108 -0.35728687 -0.045131419 0 0 0 0
0.0040937229 -0.34492138 -0.045001823 0 0 0 0
0.019844847 -0.34028402 -0.045870155 0 0 0 0
0.05977736 -0.45014152 -0.035289556 0 0 0 0
0.077616744 -0.43697563 -0.035079263 0 0 0 0
0.027021255 -0.42222852 -0.035090767 0 0 0 0
0.005205818 -0.40442765 -0.034906235 0 0 0 0
0.097908281 -0.4031302 -0.035187688 0 0 0 0
0.092978016 -0.39771232 -0.035025526 0 0 0 0
-0.022511313 -0.38215509 -0.034994565 0 0 0 0
-0.017847866 -0.37260032 -0.034767088 0 0 0 0
0.058759954 -0.3710008 -0.034796115 0 0 0 0
0.070865452 -0.37926164 -0.035679378 0 0 0 0
0.043084491 -0.35753641 -0.035222173 0 0 0 0
0.0045263516 -0.34470671 -0.035073414 0 0 0 0
0.055115767 -0.44504836 -0.024973331 0 0 0 0
0.044539455 -0.43637541 -0.025015175 0 0 0 0
0.026884543 -0.42243618 -0.025088834 0 0 0 0
0.08680103 -0.42595646 -0.024984488 0 0 0 0
0.1007477 -0.41047239 -0.024511447 0 0 0 0
-0.0012593393 -0.40077418 -0.024160346 0 0 0 0
0.005035216 -0.40465963 -0.025078638 0 0 0 0
0.011270203 -0.40900972 -0.025106302 0 0 0 0
-0.0054256911 -0.39607969 -0.02500217 0 0 0 0
0.08623562 -0.3931095 -0.024848606 0 0 0 0
0.06941013 -0.3807607 -0.024435893 0 0 0 0
-0.017702665 -0.37280804 -0.024868166 0 0 0 0
0.070829049 -0.37951976 -0.025255986 0 0 0 0
-0.00057190348 -0.34931985 -0.024258986 0 0 0 0
0.0047447914 -0.34482393 -0.025047744 0 0 0 0
0.059595771 -0.4505693 -0.015207728 0 0 0 0
0.055038031 -0.44539094 -0.015002677 0 0 0 0
0.0097666029 -0.41057849 -0.016577873 0 0 0 0
0.022134965 -0.41845769 -0.015076818 0 0 0 0
0.10073035 -0.41054344 -0.014984522 0 0 0 0
0.097222202 -0.40275779 -0.014976202 0 0 0 0
0.10159372 -0.40667939 -0.015084544 0 0 0 0
0.086014561 -0.39328995 -0.014939386 0 0 0 0
-0.022722567 -0.38259929 -0.015043473 0 0 0 0
0.075089402 -0.38438997 -0.014985334 0 0 0 0
-0.021804534 -0.37772229 -0.015021095 0 0 0 0
0.070518829 -0.37946555 -0.015683252 0 0 0 0
-0.012658591 -0.36645243 -0.014969498 0 0 0 0
-0.008475624 -0.36187008 -0.015014752 0 0 0 0
0.047350857 -0.36223075 -0.015015434 0 0 0 0
0.053790547 -0.36698756 -0.015187736 0 0 0 0
0.036082584 -0.35310763 -0.015088666 0 0 0 0
0.064600982 -0.45188028 -0.00485243 0 0 0 0
0.07319472 -0.44406143 -0.0050957599 0 0 0 0
0.078006886 -0.43747452 -0.0050210129 0 0 0 0
0.010833726 -0.40910771 -0.0052809143 0 0 0 0
-0.0057117688 -0.39663807 -0.0050781895 0 0 0 0
-0.017466759 -0.37315458 -0.0052398881 0 0 0 0
0.064595386 -0.3761445 -0.00516816 0 0 0 0
0.053320713 -0.36699635 -0.0052576819 0 0 0 0
-0.0035296103 -0.35555491 -0.0050945347 0 0 0 0
0.017337292 -0.34061241 -0.0049310336 0 0 0 0
0.025256598 -0.34463331 -0.004991401 0 0 0 0
0.064599015 -0.45214552 0.0049785767 0 0 0 0
0.043724991 -0.43694621 0.0049772044 0 0 0 0
0.082475036 -0.43299231 0.005064351 0 0 0 0
0.032509916 -0.42777875 0.0045655752 0 0 0 0
0.091645703 -0.42188826 0.004891926 0 0 0 0
0.10092733 -0.41101557 0.0049322797 0 0 0 0
-0.0014898988 -0.40112939 0.0052071931 0 0 0 0
0.085651949 -0.39376041 0.0049153594 0 0 0 0
0.092022091 -0.398563 0.0050676558 0 0 0 0
0.068843305 -0.38102269 0.0050343904 0 0 0 0
0.074856609 -0.38497561 0.0048090597 0 0 0 0
0.070314117 -0.37999165 0.0027333871 0 0 0 0
0.035591695 -0.35348678 0.0048370375 0 0 0 0
0.058717709 -0.45068106 0.016079834 0 0 0 0
0.078151405 -0.43803179 0.014769562 0 0 0 0
0.074900381 -0.38538101 0.014881083 0 0 0 0
0.046673134 -0.36282852 0.014952909 0 0 0 0
0.0010353763 -0.35149306 0.015418652 0 0 0 0
0.02901344 -0.3503294 0.016196299 0 0 0 0
0.06482254 -0.4526937 0.025042186 0 0 0 0
0.073809206 -0.44434142 0.025068138 0 0 0 0
0.078509048 -0.43794435 0.024864998 0 0 0 0
0.082735494 -0.43332559 0.025203377 0 0 0 0
0.091787256 -0.42211646 0.024967384 0 0 0 0
0.096202165 -0.40317225 0.025145886 0 0 0 0
0.079235367 -0.39068761 0.02534177 0 0 0 0
0.074792609 -0.38565588 0.024910264 0 0 0 0
-0.02128512 -0.37828463 0.024777688 0 0 0 0
-0.016859839 -0.37366217 0.025195573 0 0 0 0
0.057537094 -0.37208456 0.024702199 0 0 0 0
-0.012135595 -0.36710149 0.024784986 0 0 0 0
0.0012089664 -0.35154423 0.025362553 0 0 0 0
0.02930076 -0.35026893 0.025455259 0 0 0 0
0.030655134 -0.34937757 0.024568062 0 0 0 0
0.013998541 -0.33781141 0.024922291 0 0 0 0
0.05870796 -0.45106253 0.03517136 0 0 0 0
0.047651257 -0.44185638 0.035104338 0 0 0 0
0.036592796 -0.43280131 0.035165071 0 0 0 0
0.032084525 -0.42850032 0.03480877 0 0 0 0
0.087631725 -0.42708039 0.034916896 0 0 0 0
-0.0018553934 -0.40189999 0.035365086 0 0 0 0
0.091246203 -0.39888826 0.034578592 0 0 0 0
0.068323247 -0.38141918 0.034858353 0 0 0 0
0.074666433 -0.38594142 0.034988705 0 0 0 0
0.080672473 -0.38938272 0.033809975 0 0 0 0
0.063771747 -0.37713459 0.03484574 0 0 0 0
-0.012030731 -0.3674649 0.034973931 0 0 0 0
0.0094647733 -0.33957154 0.034184366 0 0 0 0
0.047434185 -0.44198778 0.045076024 0 0 0 0
0.031837005 -0.42860788 0.044616163 0 0 0 0
0.087754346 -0.42732739 0.044849195 0 0 0 0
0.096928224 -0.41606435 0.045025256 0 0 0 0
0.089341387 -0.40028176 0.044727039 0 0 0 0
-0.0071123661 -0.39743313 0.044778891 0 0 0 0
-0.022699006 -0.38383704 0.045095067 0 0 0 0
-0.011957968 -0.36767256 0.044816818 0 0 0 0
-0.0076262001 -0.36300308 0.045091536 0 0 0 0
0.0014760117 -0.35192996 0.045230947 0 0 0 0
0.041480601 -0.35894394 0.045109827 0 0 0 0
0.0097054075 -0.33945099 0.043620605 0 0 0 0
0.013698906 -0.33819824 0.044815723 0 0 0 0
0.058241256 -0.45133835 0.055017155 0 0 0 0
0.047258176 -0.44221243 0.055042628 0 0 0 0
0.053640794 -0.44694594 0.054700166 0 0 0 0
0.069388211 -0.44922221 0.05495574 0 0 0 0
0.083175465 -0.43393403 0.055174131 0 0 0 0
0.087950014 -0.42748019 0.054899376 0 0 0 0
0.085046411 -0.39525595 0.055053536 0 0 0 0
0.056712281 -0.37259254 0.054975607 0 0 0 0
-0.0026238791 -0.35657415 0.055067476 0 0 0 0
0.04132089 -0.35908684 0.054818995 0 0 0 0
0.0064162891 -0.34551373 0.05502174 0 0 0 0
0.065132983 -0.45391855 0.065037377 0 0 0 0
0.04692468 -0.44237196 0.065157682 0 0 0 0
0.035864126 -0.4333469 0.065017693 0 0 0 0
0.078923613 -0.43875539 0.06503927 0 0 0 0
0.083252586 -0.43413079 0.064980678 0 0 0 0
0.019268662 -0.42078599 0.065496802 0 0 0 0
0.025160177 -0.42459267 0.065067813 0 0 0 0
0.031571943 -0.42905846 0.064965487 0 0 0 0
0.0034685228 -0.4068706 0.064980157 0 0 0 0
0.10152587 -0.40853727 0.06479919 0 0 0 0
0.078672677 -0.3911323 0.064997219 0 0 0 0
0.084902026 -0.39551944 0.065103002 0 0 0 0
0.09086249 -0.39902854 0.065201081 0 0 0 0
0.051808979 -0.36848226 0.064928688 0 0 0 0
0.035121307 -0.35541505 0.064930983 0 0 0 0
0.024173725 -0.34642079 0.064910278 0 0 0 0
0.06975539 -0.44963297 0.075416595 0 0 0 0
0.083500095 -0.43427154 0.074935831 0 0 0 0
0.092624761 -0.42300859 0.074975736 0 0 0 0
0.097310059 -0.41672581 0.074949332 0 0 0 0
-0.0077526481 -0.39812246 0.074982211 0 0 0 0
-0.02062371 -0.37901413 0.074998833 0 0 0 0
0.056171872 -0.37293398 0.07498607 0 0 0 0
0.039358202 -0.36044499 0.075374775 0 0 0 0
0.045199223 -0.36402577 0.074899338 0 0 0 0
-0.0022693356 -0.35696316 0.074845873 0 0 0 0
0.028753977 -0.35121113 0.075161897 0 0 0 0
0.065251924 -0.45463955 0.08482413 0 0 0 0
0.046398114 -0.44272992 0.084927119 0 0 0 0
0.052878201 -0.44754684 0.084921509 0 0 0 0
0.069971569 -0.44972345 0.084535845 0 0 0 0
0.041981932 -0.43854433 0.08514899 0 0 0 0
0.083751999 -0.43434027 0.084992148 0 0 0 0
0.031023024 -0.42933276 0.085061006 0 0 0 0
0.088320538 -0.42805281 0.085015304 0 0 0 0
0.095039248 -0.40455747 0.084952593 0 0 0 0
-0.022597069 -0.38487327 0.08509592 0 0 0 0
-0.018945631 -0.38759547 0.084935807 0 0 0 0
-0.015998164 -0.37472153 0.085062675 0 0 0 0
0.062321406 -0.37784538 0.084847607 0 0 0 0
0.028414903 -0.35132429 0.085112199 0 0 0 0
0.034764092 -0.35588142 0.085000105 0 0 0 0
0.040892772 -0.35916218 0.083522722 0 0 0 0
0.029518269 -0.43072474 0.095466383 0 0 0 0
0.035318352 -0.4340755 0.095089309 0 0 0 0
0.083808765 -0.43461683 0.095032297 0 0 0 0
0.030916007 -0.42931649 0.094640799 0 0 0 0
0.08848913 -0.42826688 0.094997503 0 0 0 0
0.097656943 -0.41687462 0.094984129 0 0 0 0
-0.0035360977 -0.4027909 0.094900966 0 0 0 0
0.095016226 -0.40493923 0.094985873 0 0 0 0
0.066443451 -0.3829056 0.11497837 0.072950296 -0.38770404 3.4990423e-42 nan
0 0 0 0 0 0 0
0 0 0 0 0 0 0
0 0 0 0 0 0 0
0 0 0 0 0 0 0
0 0 0 0 0 0 0
0 0 0 0 0 0 0
0 0 0 0 0 0 0
0 0 0 0 0 0 0
0 0 0 0 0 0 0
0 0 0 0 0 0 0
0 0 0 0 0 0 0
0 0 0 0 0 0 0
0 0 0 0 0 0 0
0 0 0 0 0 0 0
0 0 0 0 0 0 0
0 0 0 0 0 0 0
0 0 0 0 0 0 0
0 0 0 0 0 0 0
0 0 0 0 0 0 0
0 0 0 0 0 0 0
0 0 0 0 0 0 0
0 0 0 0 0 0 0
0 0 0 0 0 0 0
0 0 0 0 0 0 0
0 0 0 0 0 0 0
0 0 0 0 0 0 0
0 0 0 0 0 0 0
0 0 0 0 0 0 0
0 0 0 0 0 0 0
0 0 0 0 0 0 0
0 0 0 0 0 0 0
0 0 0 0 0 0 0
0 0 0 0 0 0 0
0 0 0 0 0 0 0
0 0 0 0 0 0 0
0 0 0 0 0 0 0
0 0 0 0 0 0 0
0 0 0 0 0 0 0
0 0 0 0 0 0 0
0 0 0 0 0 0 0
0 0 0 0 0 0 0
0 0 0 0 0 0 0
0 0 0 0 0 0 0
0 0 0 0 0 0 0
0 0 0 0 0 0 0
0 0 0 0 0 0 0
0 0 0 0 0 0 0
0 0 0 0 0 0 0
0 0 0 0 0 0 0
0 0 0 0 0 0 0
0 0 0 0 0 0 0
0 0 0 0 0 0 0
0 0 0 0 0 0 0
0 0 0 0 0 0 0
0 0 0 0 0 0 0
0 0 0 0 0 0 0
0 0 0 0 0 0 0
0 0 0 0 0 0 0
0 0 0 0 0 0 0
0 0 0 0 0 0 0
0 0 0 0 0 0 0
0 0 0 0 0 0 0
0 0 0 0 0 0 0
0 0 0 0 0 0 0
0 0 0 0 0 0 0
0 0 0 0 0 0 0
0 0 0 0 0 0 0
0 0 0 0 0 0 0
0 0 0 0 0 0 0
0 0 0 0 0 0 0
0 0 0 0 0 0 0
0 0 0 0 0 0 0
0 0 0 0 0 0 0
0 0 0 0 0 0 0
0 0 0 0 0 0 0
0 0 0 0 0 0 0
0 0 0 0 0 0 0
0 0 0 0 0 0 0
0 0 0 0 0 0 0
0 0 0 0 0 0 0
0 0 0 0 0 0 0
0 0 0 0 0 0 0
0 0 0 0 0 0 0
0 0 0 0 0 0 0
0 0 0 0 0 0 0
0 0 0 0 0 0 0
0 0 0 0 0 0 0
0 0 0 0 0 0 0
0 0 0 0 0 0 0
0 0 0 0 0 0 0
0 0 0 0 0 0 0
0 0 0 0 0 0 0
0 0 0 0 0 0 0
0 0 0 0 0 0 0
0 0 0 0 0 0 0
0 0 0 0 0 0 0
0 0 0 0 0 0 0
0 0 0 0 0 0 0
0 0 0 0 0 0 0
0 0 0 0 0 0 0
0 0 0 0 0 0 0
0 0 0 0 0 0 0
0 0 0 0 0 0 0
0 0 0 0 0 0 0
0 0 0 0 0 0 0
0 0 0 0 0 0 0
0 0 0 0 0 0 0
0 0 0 0 0 0 0
0 0 0 0 0 0 0
0 0 0 0 0 0 0
0 0 0 0 0 0 0
0 0 0 0 0 0 0
0 0 0 0 0 0 0
0 0 0 0 0 0 0
0 0 0 0 0 0 0
0 0 0 0 0 0 0
0 0 0 0 0 0 0
0 0 0 0 0 0 0
0 0 0 0 0 0 0
0 0 0 0 0 0 0
0 0 0 0 0 0 0
0 0 0 0 0 0 0
0 0 0 0 0 0 0
0 0 0 0 0 0 0
0 0 0 0 0 0 0
0 0 0 0 0 0 0
0 0 0 0 0 0 0
0 0 0 0 0 0 0
0 0 0 0 0 0 0
0 0 0 0 0 0 0
0 0 0 0 0 0 0
0 0 0 0 0 0 0
0 0 0 0 0 0 0
0 0 0 0 0 0 0
0 0 0 0 0 0 0
0 0 0 0 0 0 0
0 0 0 0 0 0 0
0 0 0 0 0 0 0
0 0 0 0 0 0 0
0 0 0 0 0 0 0
0 0 0 0 0 0 0
0 0 0 0 0 0 0
0 0 0 0 0 0 0
0 0 0 0 0 0 0
0 0 0 0 0 0 0
0 0 0 0 0 0 0
0 0 0 0 0 0 0
0 0 0 0 0 0 0
0 0 0 0 0 0 0
0 0 0 0 0 0 0
0 0 0 0 0 0 0
0 0 0 0 0 0 0
0 0 0 0 0 0 0
0 0 0 0 0 0 0
0 0 0 0 0 0 0
0 0 0 0 0 0 0
0 0 0 0 0 0 0
0 0 0 0 0 0 0
0 0 0 0 0 0 0
0 0 0 0 0 0 0
0 0 0 0 0 0 0
0 0 0 0 0 0 0
0 0 0 0 0 0 0
0 0 0 0 0 0 0
0 0 0 0 0 0 0
0 0 0 0 0 0 0
0 0 0 0 0 0 0
0 0 0 0 0 0 0
0 0 0 0 0 0 0
0 0 0 0 0 0 0
0 0 0 0 0 0 0
0 0 0 0 0 0 0
0 0 0 0 0 0 0
0 0 0 0 0 0 0
0 0 0 0 0 0 0
0 0 0 0 0 0 0
0 0 0 0 0 0 0
0 0 0 0 0 0 0
0 0 0 0 0 0 0
0 0 0 0 0 0 0
0 0 0 0 0 0 0
0 0 0 0 0 0 0
0 0 0 0 0 0 0
0 0 0 0 0 0 0
0 0 0 0 0 0 0
0 0 0 0 0 0 0
0 0 0 0 0 0 0
0 0 0 0 0 0 0
0 0 0 0 0 0 0
0 0 0 0 0 0 0
0 0 0 0 0 0 0
0 0 0 0 0 0 0
0 0 0 0 0 0 0
0 0 0 0 0 0 0
0 0 0 0 0 0 0
0 0 0 0 0 0 0
0 0 0 0 0 0 0
0 0 0 0 0 0 0
0 0 0 0 0 0 0
0 0 0 0 0 0 0
0 0 0 0 0 0 0
0 0 0 0 0 0 0
0 0 0 0 0 0 0
0 0 0 0 0 0 0
0 0 0 0 0 0 0
0 0 0 0 0 0 0
0 0 0 0 0 0 0
0 0 0 0 0 0 0
0 0 0 0 0 0 0
0 0 0 0 0 0 0
0 0 0 0 0 0 0
0 0 0 0 0 0 0
0 0 0 0 0 0 0
0 0 0 0 0 0 0
0 0 0 0 0 0 0
0 0 0 0 0 0 0
0 0 0 0 0 0 0
0 0 0 0 0 0 0
0 0 0 0 0 0 0
0 0 0 0 0 0 0
0 0 0 0 0 0 0
0 0 0 0 0 0 0
0 0 0 0 0 0 0
0 0 0 0 0 0 0
0 0 0 0 0 0 0
0 0 0 0 0 0 0
0 0 0 0 0 0 0
0 0 0 0 0 0 0
0 0 0 0 0 0 0
0 0 0 0 0 0 0
0 0 0 0 0 0 0
0 0 0 0 0 0 0
0 0 0 0 0 0 0
0 0 0 0 0 0 0
0 0 0 0 0 0 0
0 0 0 0 0 0 0
0 0 0 0 0 0 0
0 0 0 0 0 0 0
0 0 0 0 0 0 0
0 0 0 0 0 0 0
0 0 0 0 0 0 0
0 0 0 0 0 0 0
0 0 0 0 0 0 0
0 0 0 0 0 0 0
0 0 0 0 0 0 0
0 0 0 0 0 0 0
0 0 0 0 0 0 0
0 0 0 0 0 0 0
0 0 0 0 0 0 0
0 0 0 0 0 0 0
0 0 0 0 0 0 0
0 0 0 0 0 0 0
0 0 0 0 0 0 0
0 0 0 0 0 0 0
0 0 0 0 0 0 0
0 0 0 0 0 0 0
0 0 0 0 0 0 0
0 0 0 0 0 0 0
0 0 0 0 0 0 0
0 0 0 0 0 0 0
0 0 0 0 0 0 0
0 0 0 0 0 0 0
0 0 0 0 0 0 0
0 0 0 0 0 0 0
0 0 0 0 0 0 0
0 0 0 0 0 0 0
0 0 0 0 0 0 0
0 0 0 0 0 0 0
0 0 0 0 0 0 0
0 0 0 0 0 0 0
0 0 0 0 0 0 0
0 0 0 0 0 0 0
0 0 0 0 0 0 0
0 0 0 0 0 0 0
0 0 0 1 0 0 0 1 0 0 0 1 0 0 0 0 0 549 1 0 0
